HIERARCHY
ROOT joint_Root
{
  OFFSET 0 0 0
  CHANNELS 6 Xposition Yposition Zposition Zrotation Xrotation Yrotation
  JOINT Hips
  {
    OFFSET 0 93.9241 -3
    CHANNELS 6 Xposition Yposition Zposition Zrotation Xrotation Yrotation
    JOINT Spine
    {
      OFFSET 15.7357 0 0
      CHANNELS 6 Xposition Yposition Zposition Zrotation Xrotation Yrotation
      JOINT Chest
      {
        OFFSET 8.98455 -0.406207 0
        CHANNELS 6 Xposition Yposition Zposition Zrotation Xrotation Yrotation
        JOINT Neck
        {
          OFFSET 16.3773 0 0
          CHANNELS 6 Xposition Yposition Zposition Zrotation Xrotation Yrotation
          JOINT Head
          {
            OFFSET 6.45672 0 0
            CHANNELS 6 Xposition Yposition Zposition Zrotation Xrotation Yrotation
            End Site
            {
              OFFSET 0 0 0
            }
          }
        }
        JOINT Shoulder_L
        {
          OFFSET 12.9942 -0.242716 4.98039
          CHANNELS 6 Xposition Yposition Zposition Zrotation Xrotation Yrotation
          JOINT UpperArm_L
          {
            OFFSET 5.34809 0 0
            CHANNELS 6 Xposition Yposition Zposition Zrotation Xrotation Yrotation
            JOINT LowerArm_L
            {
              OFFSET 24.3286 1.87007e-05 0
              CHANNELS 6 Xposition Yposition Zposition Zrotation Xrotation Yrotation
              JOINT Hand_L
              {
                OFFSET 22.2916 0 0
                CHANNELS 6 Xposition Yposition Zposition Zrotation Xrotation Yrotation
                End Site
                {
                  OFFSET 0 0 0
                }
              }
            }
          }
        }
        JOINT Shoulder_R
        {
          OFFSET 12.9945 -0.242716 -4.98039
          CHANNELS 6 Xposition Yposition Zposition Zrotation Xrotation Yrotation
          JOINT UpperArm_R
          {
            OFFSET -5.34813 0 0
            CHANNELS 6 Xposition Yposition Zposition Zrotation Xrotation Yrotation
            JOINT LowerArm_R
            {
              OFFSET -24.3289 0.000322201 0
              CHANNELS 6 Xposition Yposition Zposition Zrotation Xrotation Yrotation
              JOINT Hand_R
              {
                OFFSET -22.2915 -0.000108084 0
                CHANNELS 6 Xposition Yposition Zposition Zrotation Xrotation Yrotation
                End Site
                {
                  OFFSET 0 0 0
                }
              }
            }
          }
        }
      }
    }
    JOINT UpperLeg_L
    {
      OFFSET -2.19248 -6.46944 0
      CHANNELS 6 Xposition Yposition Zposition Zrotation Xrotation Yrotation
      JOINT LowerLeg_L
      {
        OFFSET 39.0811 0 -1.23785e-05
        CHANNELS 6 Xposition Yposition Zposition Zrotation Xrotation Yrotation
        JOINT Foot_L
        {
          OFFSET 40.9854 0 -1.26872e-05
          CHANNELS 6 Xposition Yposition Zposition Zrotation Xrotation Yrotation
          JOINT Toes_L
          {
            OFFSET 11.7543 0 0
            CHANNELS 6 Xposition Yposition Zposition Zrotation Xrotation Yrotation
            End Site
            {
              OFFSET 0 0 0
            }
          }
        }
      }
    }
    JOINT UpperLeg_R
    {
      OFFSET -2.19251 6.46944 0
      CHANNELS 6 Xposition Yposition Zposition Zrotation Xrotation Yrotation
      JOINT LowerLeg_R
      {
        OFFSET -39.0811 -0.00228153 -0.0401928
        CHANNELS 6 Xposition Yposition Zposition Zrotation Xrotation Yrotation
        JOINT Foot_R
        {
          OFFSET -40.9854 0 0
          CHANNELS 6 Xposition Yposition Zposition Zrotation Xrotation Yrotation
          JOINT Toes_R
          {
            OFFSET -11.7543 0 0
            CHANNELS 6 Xposition Yposition Zposition Zrotation Xrotation Yrotation
            End Site
            {
              OFFSET 0 0 0
            }
          }
        }
      }
    }
  }
}
MOTION
Frames:	5
Frame Time:	0.0333333
0 0 0 0 0 -0 -4.07113 91.3604 -1.09552 84.6348 -5.11669 5.5927 15.7357 5.1072e-06 -5.51765e-07 103.53 83.8249 -102.657 8.98455 -0.406207 -4.3199e-07 4.22464 2.85783 1.63833 16.3773 -1.3905e-06 -6.99897e-07 -6.95667 -4.2596 4.71137 6.45672 -1.25837e-06 -1.02172e-07 0.540529 -6.17887 8.94354 12.9942 -0.242716 4.98039 -90.3043 2.13394 -96.8845 5.34809 -7.22636e-06 -6.2814e-07 -74.839 -6.12045 2.84613 24.3286 1.87007e-05 4.90208e-06 3.15641 12.4316 -14.3679 22.2916 -9.88446e-07 4.63217e-06 2.47328 5.11632 4.7373 12.9945 -0.242716 -4.98039 89.6718 4.43047 -100.759 -5.34813 -1.25947e-06 -3.79883e-06 -73.7379 -4.11889 12.7516 -24.3289 0.000322201 -8.65921e-06 3.22214 9.92636 -18.0913 -22.2915 -0.000108084 -4.47941e-06 10.0102 5.39282 -2.70532 -2.19248 -6.46944 -1.22534e-07 -170.868 -0.609081 -4.46505 39.0811 -6.73843e-06 -1.23785e-05 0.000721973 0.016837 30.2587 40.9854 -6.48686e-06 -1.26872e-05 -2.97542 0.12079 -70.0635 11.7543 -2.30145e-07 3.05095e-06 -0.0682037 0.0554116 -16.5742 -2.19251 6.46944 -1.45247e-06 -171.253 4.20741 176.922 -39.0811 -0.00228153 -0.0401928 0.0821859 -0.124981 23.7293 -40.9854 7.72618e-06 5.99936e-06 2.3166 -9.03721 -65.2929 -11.7543 -5.6619e-06 -5.58687e-06 -0.0485903 0.0359067 -16.5731 
0 0 0 0 0 -0 -4.06508 91.355 -1.08164 84.6036 -5.0891 5.5893 15.7357 5.1072e-06 -5.51765e-07 103.849 83.8699 -102.988 8.98455 -0.406207 -4.3199e-07 4.12094 2.9028 1.61563 16.3773 -1.3905e-06 -6.99897e-07 -6.81243 -4.30061 4.69123 6.45672 -1.25837e-06 -1.02172e-07 0.763032 -6.32676 9.06302 12.9942 -0.242716 4.98039 -90.2906 2.06629 -96.9963 5.34809 -7.22636e-06 -6.2814e-07 -74.6412 -5.15684 2.04138 24.3286 1.87007e-05 4.90208e-06 3.41418 12.5075 -15.4017 22.2916 -9.88446e-07 4.63217e-06 2.81479 5.12359 4.56773 12.9945 -0.242716 -4.98039 89.683 4.40754 -100.883 -5.34813 -1.25947e-06 -3.79883e-06 -73.755 -3.89237 12.6261 -24.3289 0.000322201 -8.65921e-06 3.31581 9.96055 -18.5238 -22.2915 -0.000108084 -4.47941e-06 10.219 5.39279 -2.7046 -2.19248 -6.46944 -1.22534e-07 -170.832 -0.614518 -4.48472 39.0811 -6.73843e-06 -1.23785e-05 0.000887829 0.0164148 30.3018 40.9854 -6.48686e-06 -1.26872e-05 -2.96191 0.171021 -70.0907 11.7543 -2.30145e-07 3.05095e-06 -0.0689119 0.0560106 -16.5743 -2.19251 6.46944 -1.45247e-06 -171.221 4.25523 176.929 -39.0811 -0.00228153 -0.0401928 0.0825591 -0.125845 23.7313 -40.9854 7.72618e-06 5.99936e-06 2.32073 -9.03219 -65.3089 -11.7543 -5.6619e-06 -5.58687e-06 -0.0413932 0.0305686 -16.5732 
0 0 0 0 0 -0 -4.05634 91.3422 -1.05224 84.5745 -5.15814 5.63524 15.7357 5.1072e-06 -5.51765e-07 104.148 83.9044 -103.287 8.98455 -0.406207 -4.3199e-07 4.03823 2.94747 1.61658 16.3773 -1.3905e-06 -6.99897e-07 -6.6136 -4.29634 4.6581 6.45672 -1.25837e-06 -1.02172e-07 0.896785 -6.48386 9.11316 12.9942 -0.242716 4.98039 -90.2854 2.04705 -97.0594 5.34809 -7.22636e-06 -6.2814e-07 -74.4708 -4.62828 1.25733 24.3286 1.87007e-05 4.90208e-06 3.60485 12.3308 -16.436 22.2916 -9.88446e-07 4.63217e-06 3.03388 5.12902 4.44045 12.9945 -0.242716 -4.98039 89.6965 4.34781 -101.002 -5.34813 -1.25947e-06 -3.79883e-06 -73.7737 -3.84522 12.4636 -24.3289 0.000322201 -8.65921e-06 3.33211 9.7998 -18.8896 -22.2915 -0.000108084 -4.47941e-06 10.3832 5.3954 -2.7882 -2.19248 -6.46944 -1.22534e-07 -170.773 -0.751248 -4.41638 39.0811 -6.73843e-06 -1.23785e-05 -0.00801667 0.0316975 30.3599 40.9854 -6.48686e-06 -1.26872e-05 -2.93724 0.265931 -70.1555 11.7543 -2.30145e-07 3.05095e-06 -0.0530539 0.0431016 -16.5749 -2.19251 6.46944 -1.45247e-06 -171.201 4.15438 176.972 -39.0811 -0.00228153 -0.0401928 0.0822234 -0.124388 23.7976 -40.9854 7.72618e-06 5.99936e-06 2.28565 -9.07736 -65.3577 -11.7543 -5.6619e-06 -5.58687e-06 -0.0441855 0.0326728 -16.5731 
0 0 0 0 0 -0 -4.04791 91.3327 -1.02019 84.5188 -5.19379 5.64113 15.7357 5.1072e-06 -5.51765e-07 104.223 83.9499 -103.359 8.98455 -0.406207 -4.3199e-07 3.94605 2.93997 1.62629 16.3773 -1.3905e-06 -6.99897e-07 -6.47731 -4.34872 4.65482 6.45672 -1.25837e-06 -1.02172e-07 1.06648 -6.54931 9.14343 12.9942 -0.242716 4.98039 -90.2711 1.97092 -97.1668 5.34809 -7.22636e-06 -6.2814e-07 -74.3922 -4.23709 0.507456 24.3286 1.87007e-05 4.90208e-06 3.78697 12.1574 -17.4479 22.2916 -9.88446e-07 4.63217e-06 3.36187 5.13582 4.28085 12.9945 -0.242716 -4.98039 89.7091 4.27754 -101.106 -5.34813 -1.25947e-06 -3.79883e-06 -73.8301 -3.95001 12.1987 -24.3289 0.000322201 -8.65921e-06 3.43132 9.94419 -19.153 -22.2915 -0.000108084 -4.47941e-06 10.3484 5.39806 -2.8741 -2.19248 -6.46944 -1.22534e-07 -170.723 -0.808802 -4.41704 39.0811 -6.73843e-06 -1.23785e-05 -0.00279355 0.0226871 30.4365 40.9854 -6.48686e-06 -1.26872e-05 -2.92355 0.280413 -70.2138 11.7543 -2.30145e-07 3.05095e-06 -0.0555867 0.045148 -16.5748 -2.19251 6.46944 -1.45247e-06 -171.156 4.16744 176.995 -39.0811 -0.00228153 -0.0401928 0.0816431 -0.122887 23.8138 -40.9854 7.72618e-06 5.99936e-06 2.27991 -9.05059 -65.3833 -11.7543 -5.6619e-06 -5.58687e-06 -0.0471468 0.0348416 -16.5731 
0 0 0 0 0 -0 -4.02679 91.3172 -0.981539 84.4778 -5.21548 5.64563 15.7357 5.1072e-06 -5.51765e-07 104.174 83.9984 -103.311 8.98455 -0.406207 -4.3199e-07 3.85462 2.90562 1.62554 16.3773 -1.3905e-06 -6.99897e-07 -6.35119 -4.40272 4.66287 6.45672 -1.25837e-06 -1.02172e-07 1.1849 -6.59103 9.15289 12.9942 -0.242716 4.98039 -90.2544 1.86664 -97.2425 5.34809 -7.22636e-06 -6.2814e-07 -74.3706 -3.76918 -0.224901 24.3286 1.87007e-05 4.90208e-06 3.98937 12.0822 -18.4272 22.2916 -9.88446e-07 4.63217e-06 3.63753 5.13893 4.20612 12.9945 -0.242716 -4.98039 89.7125 4.24036 -101.119 -5.34813 -1.25947e-06 -3.79883e-06 -73.9099 -3.84927 12.0104 -24.3289 0.000322201 -8.65921e-06 3.48979 9.86041 -19.6072 -22.2915 -0.000108084 -4.47941e-06 10.4187 5.3958 -2.80142 -2.19248 -6.46944 -1.22534e-07 -170.681 -0.878292 -4.424 39.0811 -6.73843e-06 -1.23785e-05 -0.00262508 0.0223809 30.5315 40.9854 -6.48686e-06 -1.26872e-05 -2.89624 0.339471 -70.2885 11.7543 -2.30145e-07 3.05095e-06 -0.0630701 0.0512031 -16.5744 -2.19251 6.46944 -1.45247e-06 -171.125 4.10897 177.007 -39.0811 -0.00228153 -0.0401928 0.0806345 -0.119877 23.8805 -40.9854 7.72618e-06 5.99936e-06 2.24551 -9.08863 -65.4492 -11.7543 -5.6619e-06 -5.58687e-06 -0.0368066 0.0272125 -16.5732 
